HIERARCHY
ROOT root
{
	OFFSET	0	13.1	24.9
	CHANNELS 6  Xposition Yposition Zposition Xrotation Yrotation Zrotation
	JOINT spine_1
	{
		OFFSET	0	9.99999	0
		CHANNELS 3  Xrotation Yrotation Zrotation
		JOINT spine_2
		{
			OFFSET	0	112	-10
			CHANNELS 3  Xrotation Yrotation Zrotation
			JOINT spine_3
			{
				OFFSET	0	206.5	19.3
				CHANNELS 3  Xrotation Yrotation Zrotation
				JOINT spine_4
				{
					OFFSET	0	110.4	14.6
					CHANNELS 3  Xrotation Yrotation Zrotation
					JOINT neck_1
					{
						OFFSET	0	71.8	-50.3
						CHANNELS 3  Xrotation Yrotation Zrotation
						JOINT neck_2
						{
							OFFSET	0	86.2	-25.8
							CHANNELS 3  Xrotation Yrotation Zrotation
							JOINT head_ee
							{
								OFFSET	0	179.8	-8.7
								CHANNELS 3  Xrotation Yrotation Zrotation
								End Site
								{
									OFFSET	1	0	0
								}
							}
						}
					}
					JOINT left_clavicle
					{
						OFFSET	-43.2	22.4	-70.8
						CHANNELS 3  Xrotation Yrotation Zrotation
						JOINT left_shoulder
						{
							OFFSET	-93.9	-5.79999	48.7
							CHANNELS 3  Xrotation Yrotation Zrotation
							JOINT left_elbow
							{
								OFFSET	-291.4	-30.8	15.2
								CHANNELS 3  Xrotation Yrotation Zrotation
								JOINT left_lowarm_twist
								{
									OFFSET	-110.7	-3.89999	13.6
									CHANNELS 3  Xrotation Yrotation Zrotation
									JOINT left_hand
									{
										OFFSET	-110.7	-3.89999	13.6
										CHANNELS 3  Xrotation Yrotation Zrotation
										JOINT left_ee
										{
											OFFSET	-80.8	-5.10001	12.1
											CHANNELS 3  Xrotation Yrotation Zrotation
											End Site
											{
												OFFSET	1	0	0
											}
										}
									}
								}
							}
						}
					}
					JOINT right_clavicle
					{
						OFFSET	43.2	22.4	-70.8
						CHANNELS 3  Xrotation Yrotation Zrotation
						JOINT right_shoulder
						{
							OFFSET	93.9	-5.79999	48.7
							CHANNELS 3  Xrotation Yrotation Zrotation
							JOINT right_elbow
							{
								OFFSET	291.4	-30.8	15.2
								CHANNELS 3  Xrotation Yrotation Zrotation
								JOINT right_lowarm_twist
								{
									OFFSET	110.7	-3.89999	13.6
									CHANNELS 3  Xrotation Yrotation Zrotation
									JOINT right_hand
									{
										OFFSET	110.7	-3.89999	13.6
										CHANNELS 3  Xrotation Yrotation Zrotation
										JOINT right_ee
										{
											OFFSET	80.8	-5.10001	12.1
											CHANNELS 3  Xrotation Yrotation Zrotation
											End Site
											{
												OFFSET	1	0	0
											}
										}
									}
								}
							}
						}
					}
				}
			}
		}
	}
	JOINT left_hip
	{
		OFFSET	-82.8	-127.5	0.300001
		CHANNELS 3  Xrotation Yrotation Zrotation
		JOINT left_knee
		{
			OFFSET	-28.2	-396.7	2.2
			CHANNELS 3  Xrotation Yrotation Zrotation
			JOINT left_ankle
			{
				OFFSET	-11.7	-411.3	35.4
				CHANNELS 3  Xrotation Yrotation Zrotation
				JOINT left_toes
				{
					OFFSET	0	-60	-88.6
					CHANNELS 3  Xrotation Yrotation Zrotation
					JOINT left_foot_ee
					{
						OFFSET	-22.5	-16.5	-42.2
						CHANNELS 3  Xrotation Yrotation Zrotation
						End Site
						{
							OFFSET	1	0	0
						}
					}
				}
			}
		}
	}
	JOINT right_hip
	{
		OFFSET	82.8	-127.5	0.300001
		CHANNELS 3  Xrotation Yrotation Zrotation
		JOINT right_knee
		{
			OFFSET	28.2	-396.7	2.2
			CHANNELS 3  Xrotation Yrotation Zrotation
			JOINT right_ankle
			{
				OFFSET	11.7	-411.3	35.4
				CHANNELS 3  Xrotation Yrotation Zrotation
				JOINT right_toes
				{
					OFFSET	0	-60	-88.6
					CHANNELS 3  Xrotation Yrotation Zrotation
					JOINT right_foot_ee
					{
						OFFSET	22.5	-16.5	-42.2
						CHANNELS 3  Xrotation Yrotation Zrotation
						End Site
						{
							OFFSET	1	0	0
						}
					}
				}
			}
		}
	}
}
MOTION
Frames: 16
Frame Time: 0.02
1127.43 702.891 -1375.68 -13.9451 58.3275 6.54309 4.67059 0.881331 4.10998 4.67977 0.618248 4.15762 4.71748 0.0771985 4.20255 4.6936 0.739368 4.13783 -16.4699 8.89064 -3.16325 -16.8243 18.8466 0.277548 -0.0 0.0 -0.0 -10.2547 17.6086 -14.1797 -4.81896 -46.6663 57.2861 2.03539 -45.2308 0.847968 -8.25745 -0.36305 0.990353 1.32531 -13.7375 3.07414 -0.0 0.0 -0.0 8.25656 -11.3189 -15.5483 -46.0762 42.7595 -60.8242 0.76342 20.7154 -0.139533 42.9557 0.511858 5.33674 -2.94938 -23.8551 7.38405 0.0 0.0 0.0 7.83887 4.54277 1.50055 -19.3733 0.302569 2.94345 39.6912 -5.87261 -4.91859 -8.44843 0.0 0.0 -0.0 0.0 -0.0 14.8251 33.4153 -8.33021 -22.166 -0.263621 -3.37016 41.1393 -25.4398 5.29095 3.04986 -0.0 -0.0 0.0 0.0 0.0 
1123.1 704.854 -1373.81 -12.4967 57.7209 5.08433 4.43232 0.928147 4.08368 4.44135 0.666639 4.13434 4.48305 0.11116 4.18618 4.45942 0.770327 4.11631 -15.9424 9.14909 -4.80843 -16.2974 20.2978 -1.26178 -0.0 0.0 -0.0 -10.1536 17.9108 -13.885 -3.83894 -45.9369 57.2423 2.12405 -46.4511 0.911578 -7.90885 -0.344855 0.94965 1.32544 -15.8257 2.15393 -0.0 0.0 -0.0 8.88105 -9.7745 -16.8048 -47.9249 43.4813 -59.8251 0.675573 18.5033 -0.110046 45.4388 0.661958 5.61676 -2.96331 -24.8363 6.92186 0.0 0.0 0.0 22.9121 4.85046 -2.42286 -32.8231 -0.0743768 4.96842 41.0401 -1.58064 -4.9775 -4.75016 0.0 0.0 -0.0 0.0 -0.0 13.3298 38.3708 -8.52816 -21.9813 -0.26684 -3.342 39.9801 -25.4879 5.18214 0.906792 -0.0 -0.0 0.0 0.0 0.0 
1115.17 708.64 -1373.89 -11.7436 56.7054 3.78943 4.30214 0.965103 4.15413 4.31147 0.69905 4.207 4.35653 0.124282 4.26277 4.33206 0.79535 4.18989 -15.1069 10.8219 -5.72752 -15.5568 24.0673 -1.67226 -0.0 0.0 -0.0 -10.0879 18.1604 -13.6728 -3.2993 -45.2404 57.5026 2.19304 -47.3643 0.961958 -7.61602 -0.329762 0.915374 0.947142 -13.6501 0.568387 -0.0 0.0 -0.0 8.41255 -10.6771 -15.8781 -48.6299 44.3602 -58.5639 0.634395 17.446 -0.0973376 47.14 0.771757 5.80478 -2.02493 -21.0835 3.44392 0.0 0.0 0.0 26.8576 3.96599 -3.57242 -35.0563 -0.182565 5.29393 40.6854 -1.39138 -4.94592 -3.77548 0.0 0.0 -0.0 0.0 -0.0 11.1672 35.9249 -6.55255 -21.1497 -0.280203 -3.21509 39.5619 -24.0821 5.09686 -0.0847399 0.0 0.0 0.0 0.0 0.0 
1112.25 709.774 -1371.7 -11.8523 55.5666 3.94713 4.15156 1.34181 4.06814 4.16011 1.08045 4.1451 4.23291 0.50242 4.25385 4.20956 1.16736 4.1215 -15.5606 9.58163 -5.28796 -15.9306 21.42 -1.62414 -0.0 0.0 -0.0 -9.62832 17.2559 -13.2643 -3.10603 -45.2366 56.5355 2.31457 -48.8992 1.05247 -7.80373 -0.339417 0.937354 0.7854 -11.243 0.519398 -0.0 0.0 -0.0 8.50811 -10.5845 -16.0581 -49.0201 44.226 -58.4012 0.580243 16.0367 -0.0817379 46.1809 0.709161 5.69917 -3.07086 -25.3982 7.21915 0.0 0.0 0.0 29.1089 3.2477 -4.36351 -39.3971 -0.428858 5.91371 41.289 -0.98053 -4.99269 0.484068 -0.0 -0.0 -0.0 0.0 -0.0 11.3931 36.8359 -6.55538 -21.3126 -0.277729 -3.23997 37.4 -26.233 4.95011 0.450929 -0.0 -0.0 0.0 0.0 0.0 
1109.09 707.316 -1368.96 -11.8712 56.0288 4.15975 4.07311 1.12794 4.09513 4.08203 0.865304 4.15846 4.13945 0.279946 4.23816 4.11564 0.945194 4.14106 -13.9082 10.7374 -5.84689 -14.2652 24.0322 -2.08816 -0.0 0.0 -0.0 -9.19982 16.5378 -12.8158 -3.00917 -43.9031 55.5122 2.41764 -50.131 1.13086 -7.90857 -0.34484 0.949617 0.837487 -13.172 0.0380845 -0.0 0.0 -0.0 8.69785 -9.50481 -16.4894 -50.5505 45.6091 -57.0058 0.53657 14.8853 -0.0700949 50.3499 0.993974 6.1504 -2.83018 -28.0806 4.40191 0.0 0.0 0.0 33.5958 2.5001 -5.57486 -49.106 -1.1452 7.22236 36.2051 -2.48085 -4.55699 6.27549 -0.0 -0.0 -0.0 0.0 -0.0 10.383 43.1867 -6.69469 -19.885 -0.29699 -3.02177 41.2185 -24.4048 5.26378 -1.25364 0.0 0.0 0.0 0.0 0.0 
1105.82 705.368 -1368.35 -11.8011 55.4769 4.29723 3.9842 1.14273 3.90211 3.99223 0.892316 3.96678 4.04939 0.326969 4.0526 4.02777 0.962398 3.95038 -15.1292 11.452 -5.44114 -15.6425 25.1003 -1.15965 -0.0 0.0 -0.0 -9.0551 17.1285 -12.3521 -1.74629 -41.3231 56.1402 2.79614 -54.1623 1.42991 -7.81992 -0.340252 0.939248 0.689825 -11.9915 -0.446982 -0.0 0.0 -0.0 8.85306 -9.09289 -16.8086 -51.8998 45.915 -55.802 0.51242 14.2432 -0.0640218 51.9233 1.10991 6.31519 -2.7607 -28.388 3.8587 0.0 0.0 0.0 37.3465 5.01251 -8.55304 -53.3736 -1.5285 7.7562 34.3002 -3.647 -4.38725 10.8186 -0.0 -0.0 -0.0 0.0 -0.0 9.61082 43.3928 -6.31375 -18.8697 -0.307376 -2.86634 42.3125 -23.5718 5.33725 -1.47134 0.0 0.0 0.0 0.0 0.0 
1101.4 705.682 -1365.8 -12.0536 55.1473 4.61524 3.84439 1.04074 3.86722 3.85236 0.792747 3.92548 3.90243 0.223657 3.99837 3.88113 0.851831 3.91311 -14.1019 12.1079 -5.53394 -14.5933 26.4437 -1.2581 -0.0 0.0 -0.0 -8.78072 15.7284 -12.4003 -1.75986 -39.3704 55.8983 3.03142 -56.3279 1.62325 -7.64743 -0.331373 0.919054 0.646003 -11.8988 -0.702454 -0.0 0.0 -0.0 8.92581 -8.51128 -16.9897 -52.8754 46.5041 -54.8218 0.460597 12.8531 -0.0518807 53.8416 1.25735 6.51174 -2.58391 -28.4426 2.87377 0.0 0.0 0.0 40.273 4.19962 -9.47385 -55.7849 -1.76244 8.04495 33.3683 -2.02882 -4.27649 13.914 -0.0 -0.0 -0.0 0.0 -0.0 9.24399 42.9458 -5.90369 -18.3696 -0.311479 -2.78971 42.0746 -23.2067 5.30444 -2.34189 0.0 0.0 0.0 0.0 0.0 
1096.71 701.064 -1363.46 -12.0276 55.3061 4.73576 3.69095 0.965974 3.89632 3.69911 0.716282 3.94977 3.7445 0.13324 4.01189 3.72286 0.764674 3.9407 -14.1862 12.6813 -5.13169 -14.741 27.2908 -0.64575 -0.0 0.0 -0.0 -8.62238 15.6869 -12.1454 0.224511 -37.0245 56.5935 3.3444 -58.8709 1.88756 -7.70048 -0.334097 0.925267 0.589333 -12.8082 -1.47547 -0.0 0.0 -0.0 8.94987 -8.05292 -17.07 -53.7222 46.8268 -54.201 0.452911 12.6456 -0.0501847 54.7517 1.32959 6.60326 -2.46219 -28.798 2.03333 0.0 0.0 0.0 42.7811 4.87294 -10.5602 -55.1051 -1.69525 7.96453 32.9928 -2.25569 -4.24108 16.3668 -0.0 -0.0 -0.0 0.0 -0.0 8.4395 46.1008 -5.87086 -17.9859 -0.314174 -2.7309 43.0319 -22.536 5.36923 -2.46735 0.0 0.0 0.0 0.0 0.0 
1092.67 698.929 -1362.11 -12.0776 55.5141 4.85928 3.63941 0.930094 3.9088 3.64765 0.679683 3.95995 3.69072 0.0916814 4.01672 3.66894 0.724396 3.95203 -13.8522 13.0284 -5.15654 -14.4086 27.9738 -0.632472 -0.0 0.0 -0.0 -8.55982 15.7974 -12.0001 0.579769 -37.0131 55.8243 3.5664 -60.4736 2.0792 -7.67282 -0.332676 0.922028 0.590687 -12.3468 -1.26787 -0.0 0.0 -0.0 8.88738 -7.69502 -16.9789 -54.2468 47.1986 -54.0293 0.434575 12.1492 -0.0462481 55.5408 1.3934 6.68169 -2.43076 -29.041 1.73984 0.0 0.0 0.0 45.6783 5.16088 -12.0359 -56.0495 -1.78884 8.07603 32.8739 -2.02688 -4.22671 17.9208 -0.0 -0.0 -0.0 0.0 -0.0 7.89728 47.0983 -5.74648 -17.8359 -0.31512 -2.7079 43.4326 -22.3333 5.39807 -2.76727 0.0 0.0 0.0 0.0 0.0 
1086.71 701.439 -1360.23 -12.434 55.5148 5.46659 3.64502 0.8956 3.73182 3.65253 0.656494 3.78115 3.69229 0.0950228 3.83646 3.67244 0.699292 3.77348 -13.614 11.8435 -4.9913 -14.044 25.6243 -0.958416 -0.0 0.0 -0.0 -8.67807 17.4552 -11.6068 2.32927 -34.7374 57.0672 3.96587 -63.0053 2.43115 -7.82895 -0.340719 0.940304 0.387149 -12.4777 -2.69598 -0.0 0.0 -0.0 8.74188 -7.39645 -16.7253 -54.8541 47.152 -53.2492 0.420943 11.7789 -0.0434221 58.2975 1.62473 6.94868 -1.73669 -28.6384 -1.78709 0.0 0.0 0.0 44.6878 7.94643 -13.1903 -48.5729 -1.10017 7.15374 30.6215 -5.66567 -4.03804 18.3296 -0.0 -0.0 -0.0 0.0 -0.0 7.81807 43.3139 -5.43297 -17.6545 -0.316184 -2.68009 42.9822 -25.2197 5.4527 -2.2736 0.0 0.0 0.0 0.0 0.0 
1080.8 701.816 -1359.29 -13.4138 56.3316 6.34675 3.62401 0.745721 3.80364 3.63192 0.502358 3.8433 3.66187 -0.0689801 3.87533 3.64133 0.543463 3.83771 -14.8514 13.2726 -5.16537 -15.5338 28.4203 -0.273147 -0.0 0.0 -0.0 -8.57967 17.2553 -11.5162 3.79824 -33.6544 57.6164 4.16325 -64.1128 2.60789 -8.99355 -0.402285 1.07594 0.324509 -12.5278 -3.13994 -0.0 0.0 -0.0 8.81033 -7.29246 -16.8618 -54.9003 47.3792 -53.4823 0.352315 9.90012 -0.0305143 58.3571 1.62986 6.95432 -1.63148 -28.71 -2.38603 0.0 0.0 0.0 42.9009 6.81794 -12.013 -38.6528 -0.383292 5.80877 27.2395 -7.20488 -3.6893 17.3231 -0.0 -0.0 -0.0 0.0 -0.0 7.29998 46.2541 -4.9955 -17.54 -0.31681 -2.66253 42.4243 -23.9919 5.36078 -2.89486 0.0 0.0 0.0 0.0 0.0 
1072.69 701.038 -1360.54 -13.6302 56.5614 6.36651 3.66265 0.646522 3.78292 3.67052 0.404674 3.81633 3.69365 -0.159713 3.83437 3.67341 0.447409 3.81156 -14.0562 13.639 -5.01263 -14.6954 29.0452 -0.214207 -0.0 0.0 -0.0 -8.62073 18.1008 -11.2796 4.23182 -32.7228 57.3065 4.39428 -65.3057 2.81678 -9.39248 -0.424008 1.12211 0.497844 -12.6636 -2.02961 -0.0 0.0 -0.0 8.84913 -7.18587 -16.9426 -55.0583 47.3417 -53.5165 0.306626 8.63704 -0.023155 59.6941 1.74677 7.07964 -1.18476 -28.7607 -4.81373 0.0 0.0 0.0 40.5996 7.46233 -12.1062 -30.3095 0.0320864 4.59743 24.5908 -9.07422 -3.41092 16.9991 -0.0 -0.0 -0.0 0.0 -0.0 6.41641 45.7601 -4.24609 -17.4186 -0.317436 -2.64392 42.6817 -24.4181 5.39802 -2.93047 0.0 0.0 0.0 0.0 0.0 
1065.89 699.874 -1360.11 -13.7291 56.6517 6.49033 3.64603 0.58696 3.81818 3.65407 0.342994 3.84773 3.67321 -0.226858 3.85631 3.65267 0.38456 3.84381 -13.4933 13.9358 -4.70568 -14.1009 29.4301 0.0226815 -0.0 0.0 -0.0 -8.47803 18.2143 -11.0072 5.13958 -31.9718 57.2173 4.52356 -65.9291 2.93454 -9.77906 -0.445366 1.16671 0.550048 -12.6659 -1.67889 -0.0 0.0 -0.0 8.78663 -7.00969 -16.836 -55.3554 47.2454 -53.3645 0.29447 8.29949 -0.0213649 60.7447 1.84068 7.1762 -0.858032 -28.8087 -6.59852 0.0 0.0 0.0 39.3541 8.18968 -11.7803 -23.9584 0.227683 3.64285 22.4763 -10.566 -3.17881 16.5215 -0.0 -0.0 -0.0 0.0 -0.0 5.32062 45.4247 -3.62244 -17.3852 -0.317601 -2.6388 42.8776 -24.5607 5.42041 -2.91517 0.0 0.0 0.0 0.0 0.0 
1057.75 700.905 -1361.01 -13.5963 56.8858 6.44899 3.49247 0.535131 3.75449 3.50026 0.295314 3.78088 3.5163 -0.274646 3.78244 3.49649 0.325729 3.77839 -14.0556 14.2473 -3.27648 -14.7464 29.16 1.65054 -0.0 0.0 -0.0 -8.54683 18.3592 -11.0665 5.60861 -31.4464 56.9046 4.63368 -66.437 3.03528 -10.0467 -0.460331 1.19751 0.605412 -12.653 -1.30036 -0.0 0.0 -0.0 8.74139 -6.9531 -16.7539 -55.7131 47.1786 -53.151 0.286806 8.08638 -0.0202728 61.8038 1.93712 7.27179 -0.518917 -28.7394 -8.41217 0.0 0.0 0.0 37.3681 8.80663 -11.3237 -16.4457 0.321025 2.49469 19.0643 -10.7243 -2.74696 15.3401 -0.0 -0.0 -0.0 0.0 -0.0 4.89517 43.8165 -3.38345 -17.3221 -0.317905 -2.62912 42.379 -24.9426 5.38849 -3.23192 0.0 0.0 0.0 0.0 0.0 
1047.19 701.867 -1362.26 -14.4522 56.665 7.32764 3.72551 0.444741 3.74375 3.73328 0.205788 3.76442 3.74284 -0.346018 3.75414 3.72326 0.250789 3.76169 -12.6688 13.6797 -3.62763 -13.1638 28.2727 0.72282 -0.0 0.0 -0.0 -8.3196 18.4571 -10.6653 5.99156 -31.1313 56.7634 4.4025 -65.3462 2.82425 -10.191 -0.468454 1.21408 0.610956 -11.2755 -0.671037 -0.0 0.0 -0.0 8.69272 -6.95653 -16.6614 -55.6914 46.95 -53.4754 0.265475 7.49208 -0.0173817 62.7421 2.02404 7.35499 -0.208617 -28.7677 -10.1176 0.0 0.0 0.0 35.6713 9.46777 -11.2428 -11.0506 0.294943 1.66763 16.8177 -9.09236 -2.42819 15.5534 -0.0 -0.0 -0.0 0.0 -0.0 4.6469 41.4697 -3.07962 -16.8601 -0.319806 -2.55826 41.938 -25.443 5.36546 -3.89947 0.0 0.0 0.0 0.0 0.0 
1039.13 699.399 -1361.09 -14.5065 56.6149 7.68592 3.7336 0.358141 3.66591 3.74107 0.124306 3.68124 3.74522 -0.414472 3.65997 3.72657 0.16835 3.67949 -12.7998 12.4667 -4.01408 -13.2133 26.212 -0.0182462 -0.0 0.0 -0.0 -8.26219 17.9394 -10.7545 6.40727 -31.0381 56.6478 4.41808 -65.4227 2.83842 -9.36289 -0.422386 1.11869 0.581828 -10.3792 -0.483307 -0.0 0.0 -0.0 8.64014 -6.88119 -16.5665 -55.8515 46.6657 -53.261 0.248011 7.00428 -0.0151784 63.865 2.12984 7.45268 -0.0186051 -29.177 -11.3034 0.0 0.0 0.0 34.2779 10.0398 -11.2627 -5.6395 0.190772 0.844124 11.8971 -7.58522 -1.74165 14.6095 -0.0 -0.0 -0.0 0.0 -0.0 3.89386 39.525 -2.52041 -15.8354 -0.321983 -2.40106 42.5249 -24.544 5.38813 -4.29475 0.0 0.0 0.0 0.0 0.0 
